<svg width="204" height="57" viewBox="0 0 204 57" fill="none" xmlns="http://www.w3.org/2000/svg">
<path d="M40.72 20V15H53.24V20H40.72ZM40.72 31.04V26.28H52.84V31.04H40.72ZM37.04 15H42.56V43H37.04V15ZM55.9544 33.8C55.9544 31.88 56.3944 30.2 57.2744 28.76C58.181 27.32 59.3944 26.2 60.9144 25.4C62.461 24.6 64.2077 24.2 66.1544 24.2C68.101 24.2 69.8344 24.6 71.3544 25.4C72.901 26.2 74.1144 27.32 74.9944 28.76C75.901 30.2 76.3544 31.88 76.3544 33.8C76.3544 35.6933 75.901 37.3733 74.9944 38.84C74.1144 40.28 72.901 41.4 71.3544 42.2C69.8344 43 68.101 43.4 66.1544 43.4C64.2077 43.4 62.461 43 60.9144 42.2C59.3944 41.4 58.181 40.28 57.2744 38.84C56.3944 37.3733 55.9544 35.6933 55.9544 33.8ZM61.2344 33.8C61.2344 34.84 61.4477 35.76 61.8744 36.56C62.3277 37.3333 62.9277 37.9467 63.6744 38.4C64.421 38.8267 65.2477 39.04 66.1544 39.04C67.061 39.04 67.8877 38.8267 68.6344 38.4C69.381 37.9467 69.9677 37.3333 70.3944 36.56C70.8477 35.76 71.0744 34.84 71.0744 33.8C71.0744 32.76 70.8477 31.84 70.3944 31.04C69.9677 30.24 69.381 29.6267 68.6344 29.2C67.8877 28.7733 67.061 28.56 66.1544 28.56C65.2477 28.56 64.421 28.7733 63.6744 29.2C62.9277 29.6267 62.3277 30.24 61.8744 31.04C61.4477 31.84 61.2344 32.76 61.2344 33.8ZM85.7212 24.6V43H80.6412V24.6H85.7212ZM91.1212 30C90.7746 29.68 90.4146 29.44 90.0413 29.28C89.6946 29.0933 89.2546 29 88.7212 29C88.0812 29 87.5346 29.1733 87.0812 29.52C86.6279 29.8667 86.2812 30.36 86.0412 31C85.8279 31.6133 85.7212 32.36 85.7212 33.24L84.2812 31.8C84.2812 30.3333 84.5612 29.04 85.1212 27.92C85.6812 26.7733 86.4146 25.8667 87.3212 25.2C88.2279 24.5067 89.1613 24.16 90.1213 24.16C90.7879 24.16 91.4146 24.28 92.0013 24.52C92.6146 24.76 93.1079 25.12 93.4813 25.6L91.1212 30ZM123.827 31.24V43H118.627V31.8C118.627 30.5467 118.414 29.6133 117.987 29C117.561 28.36 116.867 28.04 115.907 28.04C115.267 28.04 114.707 28.1867 114.227 28.48C113.747 28.7467 113.374 29.1733 113.107 29.76C112.841 30.32 112.707 31 112.707 31.8V43H107.547V31.8C107.547 30.5467 107.334 29.6133 106.907 29C106.481 28.36 105.787 28.04 104.827 28.04C104.187 28.04 103.627 28.1867 103.147 28.48C102.667 28.7467 102.294 29.1733 102.027 29.76C101.761 30.32 101.627 31 101.627 31.8V43H96.6272V24.6H101.627V27.32C102.161 26.3067 102.867 25.5333 103.747 25C104.627 24.4667 105.681 24.2 106.907 24.2C108.267 24.2 109.387 24.4667 110.267 25C111.147 25.5333 111.787 26.32 112.187 27.36C112.854 26.32 113.667 25.5333 114.627 25C115.614 24.4667 116.734 24.2 117.987 24.2C119.347 24.2 120.454 24.48 121.307 25.04C122.161 25.5733 122.787 26.3733 123.187 27.44C123.614 28.48 123.827 29.7467 123.827 31.24ZM129.092 17.48C129.092 16.6267 129.399 15.9333 130.012 15.4C130.625 14.84 131.359 14.56 132.212 14.56C133.065 14.56 133.785 14.84 134.372 15.4C134.985 15.9333 135.292 16.6267 135.292 17.48C135.292 18.3067 134.985 19 134.372 19.56C133.785 20.12 133.065 20.4 132.212 20.4C131.359 20.4 130.625 20.12 130.012 19.56C129.399 19 129.092 18.3067 129.092 17.48ZM129.652 24.6H134.692V43H129.652V24.6ZM138.231 24.6H149.591V28.96H138.231V24.6ZM141.391 18.2H146.391V43H141.391V18.2ZM152.509 17.48C152.509 16.6267 152.816 15.9333 153.429 15.4C154.042 14.84 154.776 14.56 155.629 14.56C156.482 14.56 157.202 14.84 157.789 15.4C158.402 15.9333 158.709 16.6267 158.709 17.48C158.709 18.3067 158.402 19 157.789 19.56C157.202 20.12 156.482 20.4 155.629 20.4C154.776 20.4 154.042 20.12 153.429 19.56C152.816 19 152.509 18.3067 152.509 17.48ZM153.069 24.6H158.109V43H153.069V24.6ZM161.368 24.6H166.928L171.448 35.68L175.968 24.6H181.528L171.448 44.92L161.368 24.6ZM192.502 43.4C190.502 43.4 188.756 43 187.262 42.2C185.769 41.4 184.609 40.2933 183.782 38.88C182.982 37.44 182.582 35.7467 182.582 33.8C182.582 31.8267 182.982 30.1333 183.782 28.72C184.609 27.28 185.769 26.1733 187.262 25.4C188.756 24.6 190.516 24.2 192.542 24.2C194.569 24.2 196.289 24.5733 197.702 25.32C199.142 26.04 200.236 27.1067 200.982 28.52C201.729 29.9067 202.102 31.5867 202.102 33.56C202.102 33.8 202.089 34.0533 202.062 34.32C202.062 34.5867 202.049 34.8 202.022 34.96H185.542V31.76H197.502L196.102 33.6C196.209 33.44 196.302 33.2267 196.382 32.96C196.489 32.6667 196.542 32.4267 196.542 32.24C196.542 31.3333 196.369 30.56 196.022 29.92C195.702 29.28 195.236 28.7733 194.622 28.4C194.009 28.0267 193.289 27.84 192.462 27.84C191.449 27.84 190.596 28.0667 189.902 28.52C189.236 28.9467 188.716 29.6 188.342 30.48C187.996 31.3333 187.809 32.4 187.782 33.68C187.782 34.9067 187.956 35.9467 188.302 36.8C188.676 37.6533 189.222 38.3067 189.942 38.76C190.662 39.2133 191.529 39.44 192.542 39.44C193.689 39.44 194.662 39.2267 195.462 38.8C196.289 38.3467 196.969 37.68 197.502 36.8L202.022 38.2C201.062 39.9333 199.782 41.24 198.182 42.12C196.609 42.9733 194.716 43.4 192.502 43.4Z" fill="white"/>
<path d="M23.5674 19.7838H17.2297C16.6689 19.7838 16.2162 19.331 16.2162 18.7702V12.4325L23.5674 19.7838ZM23.9863 42.7565H1.01353C0.452709 42.7565 0 42.3038 0 41.743V12.0135C0 11.4527 0.452709 11 1.01353 11H14.1892V18.7703C14.1892 20.446 15.554 21.8108 17.2297 21.8108H25V41.7432C25 42.304 24.5471 42.7565 23.9863 42.7565Z" fill="#F6F5F5"/>
</svg>
